# xmcd
#
# Track frame offsets: 
#        150
#        10825
#        29040
#        49005
#        65972
#        87295
#        100130
#        126162
#        142770
#        163645
#        182410
#        199495
#
# Disc length: 3051 seconds
#
# Revision: 1
# Processed by: cddbd v1.5.2PL0 Copyright (c) Steve Scherf et al.
# Submitted via: ExactAudioCopyFreeDBPlugin 1.0
#
DISCID=a50be90c
DTITLE=Jas. Mathus - Old Scool Hot Wings
DYEAR=2006
DGENRE=Blues
TTITLE0=Voice of a Pork Chop
TTITLE1=Ben Dewberry's Final Run
TTITLE2=Peaches
TTITLE3=Tappin' That Thing
TTITLE4=Bullfrog Blues
TTITLE5=Old Rugged Cross
TTITLE6=Carrier Line
TTITLE7=Dixie
TTITLE8=Torture Blues
TTITLE9=Wouldn't Treat a Dog
TTITLE10=No Monkey Business
TTITLE11=Bright Sunny South
EXTD=
EXTT0=
EXTT1=
EXTT2=
EXTT3=
EXTT4=
EXTT5=
EXTT6=
EXTT7=
EXTT8=
EXTT9=
EXTT10=
EXTT11=
PLAYORDER=
